<svg id="Group_10552" data-name="Group 10552" xmlns="http://www.w3.org/2000/svg" width="24" height="24" viewBox="0 0 24 24">
    <rect id="Rectangle_2554" data-name="Rectangle 2554" width="24" height="24" rx="4" fill="#f4f6f9"/>
    <g id="source_icons_trash_1_" data-name="source_icons_trash (1)" transform="translate(8 7.5)">
        <path id="Path_4905" data-name="Path 4905" d="M11.925,11v5.75a.338.338,0,0,1-.3.367H5.3A.338.338,0,0,1,5,16.75V11" transform="translate(-4.087 -7.117)" fill="none" stroke="#ec4444" stroke-linecap="round" stroke-linejoin="round" stroke-width="1"/>
        <path id="Path_4906" data-name="Path 4906" d="M10,13.738V11" transform="translate(-5.597 -6.159)" fill="none" stroke="#ec4444" stroke-linecap="round" stroke-linejoin="round" stroke-width="1"/>
        <path id="Path_4908" data-name="Path 4908" d="M11.75,5.325H9.319M3,5.325H5.431m0,0V3.349A.324.324,0,0,1,5.722,3H9.028a.324.324,0,0,1,.292.349V5.325m-3.889,0H9.319" transform="translate(-3 -3.5)" fill="none" stroke="#ec4444" stroke-linecap="round" stroke-linejoin="round" stroke-width="1"/>
    </g>
</svg>
