<svg xmlns="http://www.w3.org/2000/svg" width="16" height="16" viewBox="0 0 16 16">
    <g id="Group_22" data-name="Group 22" transform="translate(-0.094)">
        <path id="Shape" d="M13.971,16H2.035A2.037,2.037,0,0,1,0,13.966V3.465A2.036,2.036,0,0,1,2.035,1.432H3.966V.369A.362.362,0,0,1,4.29,0h.034a.366.366,0,0,1,.369.369V1.432H11.25V.369A.364.364,0,0,1,11.608,0a.364.364,0,0,1,.369.369V1.432h1.994A2.033,2.033,0,0,1,16,3.465v2.17a.25.25,0,0,1,0,.04v8.292A2.033,2.033,0,0,1,13.971,16ZM.727,6.037v7.929a1.308,1.308,0,0,0,1.308,1.306H13.971a1.305,1.305,0,0,0,1.3-1.306V6.037ZM2.035,2.159A1.308,1.308,0,0,0,.727,3.465V5.31H15.272V3.465a1.305,1.305,0,0,0-1.3-1.306H11.977V3.22a.363.363,0,0,1-.364.364.362.362,0,0,1-.363-.364V2.159H4.693V3.22a.364.364,0,1,1-.727,0V2.159Z" transform="translate(0.094)" fill="#fff"/>
        <circle id="Oval" cx="1.556" cy="1.556" r="1.556" transform="translate(3.484 8.04)" fill="#fff"/>
        <circle id="Oval_Copy" data-name="Oval Copy" cx="1.556" cy="1.556" r="1.556" transform="translate(9.58 8.04)" fill="#fff"/>
    </g>
</svg>
