<svg xmlns="http://www.w3.org/2000/svg" width="68" height="18.232" viewBox="0 0 68 18.232">
    <g id="prisma_blanco_transparente" transform="translate(-24.998 -20.9)">
        <path id="Trazado_5616" data-name="Trazado 5616" d="M42.263,21.868a3.247,3.247,0,0,0-2.328-.968,2.731,2.731,0,0,0-.847.121L27.447,24.135A3.329,3.329,0,0,0,25,27.28a3.275,3.275,0,0,0,2.358,3.2,9.45,9.45,0,0,1,6.289,6.289,3.275,3.275,0,0,0,3.175,2.358h.06a3.329,3.329,0,0,0,3.144-2.449l3.114-11.61A3.491,3.491,0,0,0,42.263,21.868Zm-1.028,2.691L38.121,36.2a1.361,1.361,0,0,1-1.3,1h-.03a1.334,1.334,0,0,1-1.3-.968A11.364,11.364,0,0,0,27.9,28.64a1.4,1.4,0,0,1-.968-1.33,1.353,1.353,0,0,1,1.028-1.3L39.572,22.9a1.472,1.472,0,0,1,.363-.03,1.456,1.456,0,0,1,.968.393A1.367,1.367,0,0,1,41.235,24.558Z" transform="translate(0 0)" fill="#fff"/>
        <g id="Grupo_11275" data-name="Grupo 11275" transform="translate(46.405 22.533)">
            <g id="Grupo_11274" data-name="Grupo 11274" transform="translate(0 0)">
                <path id="Trazado_5648" data-name="Trazado 5648" d="M97.735,44.14v3.417H95.8v-10.1A2.307,2.307,0,0,1,98.4,35.1h3.054a2.291,2.291,0,0,1,2.6,2.358v4.414c0,1.572-1.119,2.268-2.6,2.268Zm0-1.784h2.933c.756,0,1.421-.121,1.421-1.179V38.093c0-.847-.484-1.149-1.209-1.149h-1.9c-.816,0-1.27.3-1.27,1.149l.03,4.263Z" transform="translate(-95.8 -32.439)" fill="#fff"/>
                <path id="Trazado_5649" data-name="Trazado 5649" d="M129.435,44.14H127.5V37.458a2.307,2.307,0,0,1,2.6-2.358h1.482v1.814h-.847c-.816,0-1.27.3-1.27,1.149l-.03,6.077Z" transform="translate(-117.915 -32.439)" fill="#fff"/>
                <path id="Trazado_5650" data-name="Trazado 5650" d="M143.688,26.3a1.088,1.088,0,1,1-1.088,1.088A1.084,1.084,0,0,1,143.688,26.3Zm.968,11.7h-1.935v-9.01h1.935V38Z" transform="translate(-128.45 -26.3)" fill="#fff"/>
                <path id="Trazado_5651" data-name="Trazado 5651" d="M153.091,44.21V42.4h4.2c.7,0,1.149-.242,1.149-1,0-.665-.544-.877-1.149-.877H155.6a2.332,2.332,0,0,1-2.6-2.51v-.544c0-1.572,1.119-2.268,2.6-2.268h4.656v1.814h-4.173c-.635,0-1.149.212-1.149.877,0,.635.514.847,1.149.847h1.693c1.482,0,2.6.7,2.6,2.268v.877a2.321,2.321,0,0,1-2.6,2.358h-4.686Z" transform="translate(-135.705 -32.509)" fill="#fff"/>
                <path id="Trazado_5652" data-name="Trazado 5652" d="M187.233,44.21H185.3V38.163c0-.877-.484-1.149-1.179-1.149H183.6c-.816,0-1.27.3-1.27,1.149V44.21H180.4V37.468c0-1.572,1.119-2.268,2.6-2.268h1.391a1.959,1.959,0,0,1,1.875,1,1.957,1.957,0,0,1,1.844-1H189.5c1.482,0,2.6.7,2.6,2.3V44.21h-1.935V38.163c0-.847-.454-1.149-1.179-1.149h-.514c-.786,0-1.24.3-1.24,1.149V44.21Z" transform="translate(-154.821 -32.509)" fill="#fff"/>
                <path id="Trazado_5653" data-name="Trazado 5653" d="M222.4,41.812V40.633c0-1.572,1.119-2.268,2.6-2.268h3.779v-.272a1.029,1.029,0,0,0-1.179-1.179h-5.08V35.1h5.594c1.482,0,2.6.7,2.6,2.268v4.414a2.307,2.307,0,0,1-2.6,2.358H225A2.3,2.3,0,0,1,222.4,41.812ZM228.81,41V40.18h-3.3c-.635,0-1.149.212-1.149.907v.3c0,.756.454.968,1.149.968H227.6C228.417,42.357,228.81,41.994,228.81,41Z" transform="translate(-184.122 -32.439)" fill="#fff"/>
            </g>
        </g>
    </g>
</svg>
