<svg id="eye-line" xmlns="http://www.w3.org/2000/svg" width="17.166" height="17.166" viewBox="0 0 17.166 17.166">
    <path id="Path_4839" data-name="Path 4839" d="M0,0H17.166V17.166H0Z" fill="none"/>
    <path id="Path_4840" data-name="Path 4840" d="M8.919,3a7.871,7.871,0,0,1,7.738,6.437,7.87,7.87,0,0,1-15.477,0A7.87,7.87,0,0,1,8.919,3Zm0,11.444A6.44,6.44,0,0,0,15.2,9.439a6.441,6.441,0,0,0-12.555,0,6.441,6.441,0,0,0,6.278,5.006Zm0-1.788a3.219,3.219,0,1,1,3.219-3.219A3.219,3.219,0,0,1,8.919,12.656Zm0-1.431A1.788,1.788,0,1,0,7.131,9.437,1.788,1.788,0,0,0,8.919,11.225Z" transform="translate(-0.336 -0.854)" fill="#39f"/>
</svg>
