<svg xmlns="http://www.w3.org/2000/svg" viewBox="0 0 25 28"><defs><style>.cls-1{fill:#3cc480;}.cls-2{fill:#858f94;}</style></defs><g id="Capa_2" data-name="Capa 2"><g id="Capa_1-2" data-name="Capa 1"><path class="cls-1" d="M12.5,19a5,5,0,1,1,5-5A5,5,0,0,1,12.5,19Zm0-8.48A3.49,3.49,0,1,0,16,14,3.49,3.49,0,0,0,12.5,10.51Z"/><path class="cls-2" d="M12.5,28a1.41,1.41,0,0,1-.72-.19l-11-6.25A1.53,1.53,0,0,1,0,20.22V7.78A1.53,1.53,0,0,1,.77,6.44l11-6.25a1.51,1.51,0,0,1,1.46,0l11,6.25A1.53,1.53,0,0,1,25,7.78V20.22a1.53,1.53,0,0,1-.77,1.34l-11,6.25A1.47,1.47,0,0,1,12.5,28Zm0-26.54L1.46,7.71l0,12.51,11,6.32,11.08-6.25,0-12.51h0a.07.07,0,0,0,0-.07Z"/></g></g></svg>