<svg xmlns="http://www.w3.org/2000/svg" viewBox="0 0 25 28"><defs><style>.cls-1{fill:#2572ba;}.cls-2{fill:#3cc480;}</style></defs><g id="Capa_2" data-name="Capa 2"><g id="Capa_1-2" data-name="Capa 1"><path class="cls-1" d="M12.5,28a1.45,1.45,0,0,1-.73-.19l-11-6.28A1.45,1.45,0,0,1,0,20.28V7.72A1.45,1.45,0,0,1,.73,6.47l11-6.28a1.51,1.51,0,0,1,1.46,0l11,6.28A1.45,1.45,0,0,1,25,7.72V20.28a1.45,1.45,0,0,1-.73,1.25l-11,6.28A1.45,1.45,0,0,1,12.5,28Zm0-26.57h0L1.45,7.7V20.28l11.05,6.29L23.55,20.3V7.72l-11-6.29ZM12.13.81h0Z"/><path class="cls-2" d="M16.85,13.32,12.23,8.76a.74.74,0,0,0-1,0,.71.71,0,0,0,0,1l3.4,3.34H8.24a.72.72,0,1,0,0,1.43H14.6l-3.4,3.34a.71.71,0,0,0,0,1,.74.74,0,0,0,1,0l4.62-4.56A.7.7,0,0,0,16.85,13.32Z"/></g></g></svg>