<svg width="30" height="30" viewBox="0 0 30 30" fill="none" xmlns="http://www.w3.org/2000/svg">
    <circle cx="15" cy="15" r="15" fill="#F2F2F2"/>
    <g clip-path="url(#clip0_1_12)">
        <path d="M14.1031 6.62577L12.0625 11.2805L7.49689 12.0293C6.67814 12.1629 6.35001 13.2984 6.94376 13.9488L10.2469 17.5699L9.46564 22.6852C9.32501 23.6098 10.1906 24.3023 10.9156 23.8699L15 21.4547L19.0844 23.8699C19.8094 24.2988 20.675 23.6098 20.5344 22.6852L19.7531 17.5699L23.0563 13.9488C23.65 13.2984 23.3219 12.1629 22.5031 12.0293L17.9375 11.2805L15.8969 6.62577C15.5313 5.79608 14.4719 5.78553 14.1031 6.62577Z" fill="#F2994A"/>
    </g>
    <defs>
        <clipPath id="clip0_1_12">
            <rect width="18" height="18" fill="white" transform="translate(6 6)"/>
        </clipPath>
    </defs>
</svg>
