<svg xmlns="http://www.w3.org/2000/svg" viewBox="0 0 25 28"><defs><style>.cls-1{fill:#2572ba;}.cls-2{fill:#3cc480;}</style></defs><g id="Capa_2" data-name="Capa 2"><g id="Capa_1-2" data-name="Capa 1"><path class="cls-1" d="M12.5,28a1.49,1.49,0,0,1-.74-.2l-11-6.26A1.46,1.46,0,0,1,0,20.27V7.73A1.48,1.48,0,0,1,.74,6.46L11.76.2a1.45,1.45,0,0,1,1.48,0l11,6.26A1.48,1.48,0,0,1,25,7.73V20.27a1.46,1.46,0,0,1-.74,1.27l-11,6.27A1.6,1.6,0,0,1,12.5,28Zm0-26.53h0l-11,6.27V20.27l11,6.26,11-6.27V7.73l-11-6.26ZM12.13.83h0Z"/><path class="cls-2" d="M16.77,10a.74.74,0,0,0-1,.18l-4.29,6L9.19,14A.75.75,0,0,0,8.13,15L11,17.89l.05,0,0,0,.11.05.08,0a.7.7,0,0,0,.25.05h0a.68.68,0,0,0,.31-.08.47.47,0,0,0,.09-.06.35.35,0,0,0,.13-.08s0,0,0-.06,0,0,0,0L17,11.08A.75.75,0,0,0,16.77,10Z"/></g></g></svg>
